{
  "accessors": [
    {
      "name": "mergedBlocks_1_0_positions",
      "componentType": 5126,
      "count": 235,
      "min": [
        -0.27869999408721924,
        -0.5561503171920776,
        0.7041500210762024
      ],
      "max": [
        -0.1808999925851822,
        -0.49520009756088257,
        0.8008500933647156
      ],
      "type": "VEC3",
      "bufferView": 0,
      "byteOffset": 0
    },
    {
      "name": "mergedBlocks_1_0_normals",
      "componentType": 5126,
      "count": 235,
      "min": [
        -0.9947866201400757,
        -1,
        -0.9949023723602295
      ],
      "max": [
        0.9947866201400757,
        1,
        0.9949023127555847
      ],
      "type": "VEC3",
      "bufferView": 1,
      "byteOffset": 0
    },
    {
      "name": "mergedBlocks_1_0_texcoords",
      "componentType": 5126,
      "count": 235,
      "min": [
        -0.5382981896400452,
        0.1991499960422516
      ],
      "max": [
        0.5382981896400452,
        1.53829824924469
      ],
      "type": "VEC2",
      "bufferView": 2,
      "byteOffset": 0
    },
    {
      "name": "mergedBlocks_1_0_indices",
      "componentType": 5123,
      "count": 1008,
      "min": [
        0
      ],
      "max": [
        234
      ],
      "type": "SCALAR",
      "bufferView": 3,
      "byteOffset": 0
    },
    {
      "name": "mergedBlocks_1_1_positions",
      "componentType": 5126,
      "count": 96,
      "min": [
        -0.5,
        -0.5000001788139343,
        -5.9604641222676946e-8
      ],
      "max": [
        0.5,
        0.5000001192092896,
        1
      ],
      "type": "VEC3",
      "bufferView": 0,
      "byteOffset": 2820
    },
    {
      "name": "mergedBlocks_1_1_normals",
      "componentType": 5126,
      "count": 96,
      "min": [
        -1,
        -1,
        -1
      ],
      "max": [
        1,
        1,
        1
      ],
      "type": "VEC3",
      "bufferView": 1,
      "byteOffset": 2820
    },
    {
      "name": "mergedBlocks_1_1_texcoords",
      "componentType": 5126,
      "count": 96,
      "min": [
        -0.5,
        0
      ],
      "max": [
        0.5,
        1.375
      ],
      "type": "VEC2",
      "bufferView": 2,
      "byteOffset": 1880
    },
    {
      "name": "mergedBlocks_1_1_indices",
      "componentType": 5123,
      "count": 132,
      "min": [
        0
      ],
      "max": [
        95
      ],
      "type": "SCALAR",
      "bufferView": 3,
      "byteOffset": 2016
    },
    {
      "name": "mergedBlocks_1_2_positions",
      "componentType": 5126,
      "count": 235,
      "min": [
        -0.15870000422000885,
        -0.5561503171920776,
        0.7041500210762024
      ],
      "max": [
        -0.060899991542100906,
        -0.49520009756088257,
        0.8008500933647156
      ],
      "type": "VEC3",
      "bufferView": 0,
      "byteOffset": 3972
    },
    {
      "name": "mergedBlocks_1_2_normals",
      "componentType": 5126,
      "count": 235,
      "min": [
        -0.9947866201400757,
        -1,
        -0.9949023723602295
      ],
      "max": [
        0.9947866201400757,
        1,
        0.9949023127555847
      ],
      "type": "VEC3",
      "bufferView": 1,
      "byteOffset": 3972
    },
    {
      "name": "mergedBlocks_1_2_texcoords",
      "componentType": 5126,
      "count": 235,
      "min": [
        -0.5382981896400452,
        0.1991499960422516
      ],
      "max": [
        0.5382981896400452,
        1.53829824924469
      ],
      "type": "VEC2",
      "bufferView": 2,
      "byteOffset": 2648
    },
    {
      "name": "mergedBlocks_1_2_indices",
      "componentType": 5123,
      "count": 1008,
      "min": [
        0
      ],
      "max": [
        234
      ],
      "type": "SCALAR",
      "bufferView": 3,
      "byteOffset": 2280
    },
    {
      "name": "mergedBlocks_1_3_positions",
      "componentType": 5126,
      "count": 120,
      "min": [
        -0.4075999855995178,
        -0.4009503126144409,
        0.9200000762939453
      ],
      "max": [
        0.42399999499320984,
        0.40095001459121704,
        1.4199999570846558
      ],
      "type": "VEC3",
      "bufferView": 0,
      "byteOffset": 6792
    },
    {
      "name": "mergedBlocks_1_3_normals",
      "componentType": 5126,
      "count": 120,
      "min": [
        -1,
        -1,
        -1
      ],
      "max": [
        1,
        1,
        1
      ],
      "type": "VEC3",
      "bufferView": 1,
      "byteOffset": 6792
    },
    {
      "name": "mergedBlocks_1_3_texcoords",
      "componentType": 5126,
      "count": 120,
      "min": [
        -0.42399999499320984,
        -0.41999998688697815
      ],
      "max": [
        0.42399999499320984,
        1.4009499549865723
      ],
      "type": "VEC2",
      "bufferView": 2,
      "byteOffset": 4528
    },
    {
      "name": "mergedBlocks_1_3_indices",
      "componentType": 5123,
      "count": 288,
      "min": [
        0
      ],
      "max": [
        119
      ],
      "type": "SCALAR",
      "bufferView": 3,
      "byteOffset": 4296
    }
  ],
  "asset": {
    "generator": "obj2gltf",
    "version": "2.0"
  },
  "buffers": [
    {
      "name": "3DPrinter",
      "byteLength": 26824,
      "uri": "data:application/octet-stream;base64,"
    }
  ],
  "bufferViews": [
    {
      "name": "bufferView_0",
      "buffer": 0,
      "byteLength": 8232,
      "byteOffset": 0,
      "byteStride": 12,
      "target": 34962
    },
    {
      "name": "bufferView_1",
      "buffer": 0,
      "byteLength": 8232,
      "byteOffset": 8232,
      "byteStride": 12,
      "target": 34962
    },
    {
      "name": "bufferView_2",
      "buffer": 0,
      "byteLength": 5488,
      "byteOffset": 16464,
      "byteStride": 8,
      "target": 34962
    },
    {
      "name": "bufferView_3",
      "buffer": 0,
      "byteLength": 4872,
      "byteOffset": 21952,
      "target": 34963
    }
  ],
  "materials": [
    {
      "name": "custom2",
      "pbrMetallicRoughness": {
        "baseColorFactor": [
          0.226,
          0.71,
          0.42,
          1
        ],
        "metallicFactor": 0,
        "roughnessFactor": 1
      },
      "emissiveFactor": [
        0,
        0,
        0
      ],
      "alphaMode": "OPAQUE",
      "doubleSided": false
    },
    {
      "name": "custom1",
      "pbrMetallicRoughness": {
        "baseColorFactor": [
          0.197,
          0.2,
          0.207,
          1
        ],
        "metallicFactor": 0,
        "roughnessFactor": 1
      },
      "emissiveFactor": [
        0,
        0,
        0
      ],
      "alphaMode": "OPAQUE",
      "doubleSided": false
    },
    {
      "name": "custom3",
      "pbrMetallicRoughness": {
        "baseColorFactor": [
          0.703,
          0.061,
          0.194,
          1
        ],
        "metallicFactor": 0,
        "roughnessFactor": 1
      },
      "emissiveFactor": [
        0,
        0,
        0
      ],
      "alphaMode": "OPAQUE",
      "doubleSided": false
    },
    {
      "name": "_defaultMat",
      "pbrMetallicRoughness": {
        "baseColorFactor": [
          0.685,
          0.705,
          0.766,
          1
        ],
        "metallicFactor": 0,
        "roughnessFactor": 1
      },
      "emissiveFactor": [
        0,
        0,
        0
      ],
      "alphaMode": "OPAQUE",
      "doubleSided": false
    }
  ],
  "meshes": [
    {
      "name": "mergedBlocks_1",
      "primitives": [
        {
          "attributes": {
            "POSITION": 0,
            "NORMAL": 1,
            "TEXCOORD_0": 2
          },
          "indices": 3,
          "material": 0,
          "mode": 4
        },
        {
          "attributes": {
            "POSITION": 4,
            "NORMAL": 5,
            "TEXCOORD_0": 6
          },
          "indices": 7,
          "material": 1,
          "mode": 4
        },
        {
          "attributes": {
            "POSITION": 8,
            "NORMAL": 9,
            "TEXCOORD_0": 10
          },
          "indices": 11,
          "material": 2,
          "mode": 4
        },
        {
          "attributes": {
            "POSITION": 12,
            "NORMAL": 13,
            "TEXCOORD_0": 14
          },
          "indices": 15,
          "material": 3,
          "mode": 4
        }
      ]
    }
  ],
  "nodes": [
    {
      "name": "mergedBlocks",
      "mesh": 0
    }
  ],
  "scene": 0,
  "scenes": [
    {
      "nodes": [
        0
      ]
    }
  ]
}
