{
  "accessors": [
    {
      "name": "mergedBlocks_1_0_positions",
      "componentType": 5126,
      "count": 761,
      "min": [
        -0.28999999165534973,
        -0.20000019669532776,
        9.313225746154785e-10
      ],
      "max": [
        0.2975775897502899,
        0.21999989449977875,
        1.5499999523162842
      ],
      "type": "VEC3",
      "bufferView": 0,
      "byteOffset": 0
    },
    {
      "name": "mergedBlocks_1_0_normals",
      "componentType": 5126,
      "count": 761,
      "min": [
        -1,
        -1,
        -1
      ],
      "max": [
        1,
        1,
        1
      ],
      "type": "VEC3",
      "bufferView": 1,
      "byteOffset": 0
    },
    {
      "name": "mergedBlocks_1_0_texcoords",
      "componentType": 5126,
      "count": 761,
      "min": [
        -0.2975775897502899,
        -0.5232049822807312
      ],
      "max": [
        0.28999999165534973,
        1.2200000286102295
      ],
      "type": "VEC2",
      "bufferView": 2,
      "byteOffset": 0
    },
    {
      "name": "mergedBlocks_1_0_indices",
      "componentType": 5123,
      "count": 3156,
      "min": [
        0
      ],
      "max": [
        760
      ],
      "type": "SCALAR",
      "bufferView": 3,
      "byteOffset": 0
    }
  ],
  "asset": {
    "generator": "obj2gltf",
    "version": "2.0"
  },
  "buffers": [
    {
      "name": "Human",
      "byteLength": 30664,
      "uri": "data:application/octet-stream;base64,"
    }
  ],
  "bufferViews": [
    {
      "name": "bufferView_0",
      "buffer": 0,
      "byteLength": 9132,
      "byteOffset": 0,
      "byteStride": 12,
      "target": 34962
    },
    {
      "name": "bufferView_1",
      "buffer": 0,
      "byteLength": 9132,
      "byteOffset": 9132,
      "byteStride": 12,
      "target": 34962
    },
    {
      "name": "bufferView_2",
      "buffer": 0,
      "byteLength": 6088,
      "byteOffset": 18264,
      "byteStride": 8,
      "target": 34962
    },
    {
      "name": "bufferView_3",
      "buffer": 0,
      "byteLength": 6312,
      "byteOffset": 24352,
      "target": 34963
    }
  ],
  "materials": [
    {
      "name": "_defaultMat",
      "pbrMetallicRoughness": {
        "baseColorFactor": [
          0.5310345,
          0.3768014,
          0.3258621,
          1
        ],
        "metallicFactor": 0,
        "roughnessFactor": 1
      },
      "emissiveFactor": [
        0,
        0,
        0
      ],
      "alphaMode": "OPAQUE",
      "doubleSided": false
    }
  ],
  "meshes": [
    {
      "name": "mergedBlocks_1",
      "primitives": [
        {
          "attributes": {
            "POSITION": 0,
            "NORMAL": 1,
            "TEXCOORD_0": 2
          },
          "indices": 3,
          "material": 0,
          "mode": 4
        }
      ]
    }
  ],
  "nodes": [
    {
      "name": "mergedBlocks",
      "mesh": 0
    }
  ],
  "scene": 0,
  "scenes": [
    {
      "nodes": [
        0
      ]
    }
  ]
}
